<svg width="448" height="235" viewBox="0 0 448 235" fill="none" xmlns="http://www.w3.org/2000/svg">
<path d="M38.72 8.7H24.32V42H14.72V8.7H0.32V-2.86102e-06H38.72V8.7ZM42.8956 42V-2.86102e-06H51.8956V18C52.8956 16.28 54.1956 15.02 55.7956 14.22C57.3956 13.38 59.0956 12.96 60.8956 12.96C64.2956 12.96 66.9356 13.98 68.8156 16.02C70.7356 18.06 71.6956 20.82 71.6956 24.3V42H62.6956V26.1C62.6956 24.42 62.2356 23.06 61.3156 22.02C60.4356 20.98 59.1956 20.46 57.5956 20.46C55.9156 20.46 54.5356 21.1 53.4556 22.38C52.4156 23.66 51.8956 25.4 51.8956 27.6V42H42.8956ZM91.9578 34.86C93.5178 34.86 94.7178 34.54 95.5578 33.9C96.4378 33.22 97.0978 32.3 97.5378 31.14L105.158 34.14C104.198 36.74 102.558 38.8 100.238 40.32C97.9578 41.84 95.1578 42.6 91.8378 42.6C88.9178 42.6 86.2978 41.98 83.9778 40.74C81.6578 39.46 79.8178 37.7 78.4578 35.46C77.1378 33.18 76.4778 30.56 76.4778 27.6C76.4778 24.92 77.0778 22.46 78.2778 20.22C79.5178 17.98 81.2378 16.22 83.4378 14.94C85.6378 13.62 88.1378 12.96 90.9378 12.96C95.0978 12.96 98.3778 14.16 100.778 16.56C103.218 18.92 104.438 22.08 104.438 26.04C104.438 27.2 104.318 28.42 104.078 29.7H85.4778C85.6378 31.22 86.2978 32.46 87.4578 33.42C88.6578 34.38 90.1578 34.86 91.9578 34.86ZM90.9378 19.98C89.7778 19.98 88.6778 20.3 87.6378 20.94C86.6378 21.58 85.9178 22.5 85.4778 23.7H95.7978C95.7978 22.62 95.3578 21.74 94.4778 21.06C93.6378 20.34 92.4578 19.98 90.9378 19.98ZM123.194 -2.86102e-06H144.794C148.874 -2.86102e-06 152.134 0.979998 154.574 2.94C157.054 4.9 158.294 7.52 158.294 10.8C158.294 15.36 155.994 18.56 151.394 20.4C154.034 21.16 156.094 22.38 157.574 24.06C159.054 25.74 159.794 27.82 159.794 30.3C159.794 34.02 158.474 36.9 155.834 38.94C153.234 40.98 149.654 42 145.094 42H123.194V-2.86102e-06ZM144.494 16.2C145.974 16.2 147.094 15.86 147.854 15.18C148.614 14.5 148.994 13.54 148.994 12.3C148.994 11.22 148.594 10.36 147.794 9.72C147.034 9.04 145.934 8.7 144.494 8.7H132.794V16.2H144.494ZM145.694 33.3C147.174 33.3 148.334 32.92 149.174 32.16C150.054 31.4 150.494 30.38 150.494 29.1C150.494 27.82 150.054 26.8 149.174 26.04C148.334 25.28 147.174 24.9 145.694 24.9H132.794V33.3H145.694ZM174.183 13.56V42H165.183V13.56H174.183ZM164.883 0.599997H174.483V9.9H164.883V0.599997ZM193.961 54.48C190.441 54.48 187.541 53.74 185.261 52.26C182.981 50.82 181.381 48.8 180.461 46.2L188.261 42.6C188.701 43.96 189.441 45.02 190.481 45.78C191.521 46.58 192.781 46.98 194.261 46.98C196.341 46.98 197.901 46.38 198.941 45.18C200.021 44.02 200.561 42.36 200.561 40.2V37.8C199.681 39.04 198.561 40 197.201 40.68C195.841 41.36 194.101 41.7 191.981 41.7C189.541 41.7 187.321 41.1 185.321 39.9C183.361 38.66 181.801 36.98 180.641 34.86C179.521 32.7 178.961 30.28 178.961 27.6C178.961 24.6 179.581 22 180.821 19.8C182.101 17.6 183.761 15.92 185.801 14.76C187.881 13.56 190.101 12.96 192.461 12.96C194.221 12.96 195.821 13.28 197.261 13.92C198.701 14.56 199.801 15.42 200.561 16.5V13.56H209.561V39.3C209.561 43.98 208.261 47.68 205.661 50.4C203.061 53.12 199.161 54.48 193.961 54.48ZM194.561 34.2C196.361 34.2 197.861 33.58 199.061 32.34C200.261 31.1 200.861 29.52 200.861 27.6C200.861 25.44 200.221 23.76 198.941 22.56C197.701 21.36 196.141 20.76 194.261 20.76C192.501 20.76 191.001 21.36 189.761 22.56C188.561 23.76 187.961 25.44 187.961 27.6C187.961 29.64 188.581 31.26 189.821 32.46C191.101 33.62 192.681 34.2 194.561 34.2ZM229.337 54.48C225.817 54.48 222.917 53.74 220.637 52.26C218.357 50.82 216.757 48.8 215.837 46.2L223.637 42.6C224.077 43.96 224.817 45.02 225.857 45.78C226.897 46.58 228.157 46.98 229.637 46.98C231.717 46.98 233.277 46.38 234.317 45.18C235.397 44.02 235.937 42.36 235.937 40.2V37.8C235.057 39.04 233.937 40 232.577 40.68C231.217 41.36 229.477 41.7 227.357 41.7C224.917 41.7 222.697 41.1 220.697 39.9C218.737 38.66 217.177 36.98 216.017 34.86C214.897 32.7 214.337 30.28 214.337 27.6C214.337 24.6 214.957 22 216.197 19.8C217.477 17.6 219.137 15.92 221.177 14.76C223.257 13.56 225.477 12.96 227.837 12.96C229.597 12.96 231.197 13.28 232.637 13.92C234.077 14.56 235.177 15.42 235.937 16.5V13.56H244.937V39.3C244.937 43.98 243.637 47.68 241.037 50.4C238.437 53.12 234.537 54.48 229.337 54.48ZM229.937 34.2C231.737 34.2 233.237 33.58 234.437 32.34C235.637 31.1 236.237 29.52 236.237 27.6C236.237 25.44 235.597 23.76 234.317 22.56C233.077 21.36 231.517 20.76 229.637 20.76C227.877 20.76 226.377 21.36 225.137 22.56C223.937 23.76 223.337 25.44 223.337 27.6C223.337 29.64 223.957 31.26 225.197 32.46C226.477 33.62 228.057 34.2 229.937 34.2ZM265.194 34.86C266.754 34.86 267.954 34.54 268.794 33.9C269.674 33.22 270.334 32.3 270.774 31.14L278.394 34.14C277.434 36.74 275.794 38.8 273.474 40.32C271.194 41.84 268.394 42.6 265.074 42.6C262.154 42.6 259.534 41.98 257.214 40.74C254.894 39.46 253.054 37.7 251.694 35.46C250.374 33.18 249.714 30.56 249.714 27.6C249.714 24.92 250.314 22.46 251.514 20.22C252.754 17.98 254.474 16.22 256.674 14.94C258.874 13.62 261.374 12.96 264.174 12.96C268.334 12.96 271.614 14.16 274.014 16.56C276.454 18.92 277.674 22.08 277.674 26.04C277.674 27.2 277.554 28.42 277.314 29.7H258.714C258.874 31.22 259.534 32.46 260.694 33.42C261.894 34.38 263.394 34.86 265.194 34.86ZM264.174 19.98C263.014 19.98 261.914 20.3 260.874 20.94C259.874 21.58 259.154 22.5 258.714 23.7H269.034C269.034 22.62 268.594 21.74 267.714 21.06C266.874 20.34 265.694 19.98 264.174 19.98ZM280.682 35.16L287.582 31.5C288.182 32.78 289.062 33.76 290.222 34.44C291.382 35.08 292.642 35.4 294.002 35.4C295.282 35.4 296.242 35.2 296.882 34.8C297.562 34.4 297.902 33.86 297.902 33.18C297.902 32.46 297.462 31.9 296.582 31.5C295.742 31.06 294.102 30.66 291.662 30.3C288.662 29.86 286.302 28.92 284.582 27.48C282.862 26 282.002 24.04 282.002 21.6C282.002 19.88 282.522 18.36 283.562 17.04C284.602 15.72 285.962 14.72 287.642 14.04C289.362 13.32 291.182 12.96 293.102 12.96C296.262 12.96 298.702 13.48 300.422 14.52C302.182 15.56 303.482 17 304.322 18.84L297.482 22.5C297.202 21.62 296.682 20.96 295.922 20.52C295.202 20.08 294.362 19.86 293.402 19.86C292.522 19.86 291.802 20.02 291.242 20.34C290.682 20.66 290.402 21.08 290.402 21.6C290.402 22.2 290.762 22.7 291.482 23.1C292.242 23.5 293.682 23.86 295.802 24.18C299.562 24.74 302.222 25.76 303.782 27.24C305.382 28.68 306.182 30.7 306.182 33.3C306.182 35.1 305.642 36.7 304.562 38.1C303.482 39.5 301.982 40.6 300.062 41.4C298.182 42.2 296.062 42.6 293.702 42.6C287.182 42.6 282.842 40.12 280.682 35.16ZM324.771 42.6C321.171 42.6 318.391 41.64 316.431 39.72C314.511 37.8 313.551 35.16 313.551 31.8V20.76H307.551V13.56H313.551V3.9H322.551V13.56H333.051V20.76H322.551V31.5C322.551 32.46 322.791 33.2 323.271 33.72C323.751 34.24 324.451 34.5 325.371 34.5C327.051 34.5 328.011 33.46 328.251 31.38L336.411 32.76C335.891 35.88 334.631 38.3 332.631 40.02C330.671 41.74 328.051 42.6 324.771 42.6ZM35.3 64V72.7H12.44V80.2H33.5V88.9H12.44V97.3H35.9V106H2.84V64H35.3ZM41.0792 106V77.56H50.0792V80.92C50.9592 79.64 52.1392 78.66 53.6192 77.98C55.1392 77.3 56.7592 76.96 58.4792 76.96C61.7192 76.96 64.2792 77.88 66.1592 79.72C68.0392 81.56 68.9792 84.12 68.9792 87.4V106H59.9792V89.5C59.9792 87.86 59.5392 86.56 58.6592 85.6C57.8192 84.6 56.6592 84.1 55.1792 84.1C53.6192 84.1 52.3792 84.64 51.4592 85.72C50.5392 86.8 50.0792 88.36 50.0792 90.4V106H41.0792ZM89.4538 106.6C85.8538 106.6 83.0738 105.64 81.1138 103.72C79.1938 101.8 78.2338 99.16 78.2338 95.8V84.76H72.2338V77.56H78.2338V67.9H87.2338V77.56H97.7338V84.76H87.2338V95.5C87.2338 96.46 87.4738 97.2 87.9538 97.72C88.4338 98.24 89.1338 98.5 90.0538 98.5C91.7338 98.5 92.6938 97.46 92.9338 95.38L101.094 96.76C100.574 99.88 99.3138 102.3 97.3138 104.02C95.3538 105.74 92.7338 106.6 89.4538 106.6ZM114.153 77.56V80.8C114.753 79.68 115.633 78.76 116.793 78.04C117.993 77.32 119.393 76.96 120.993 76.96C123.713 76.96 125.733 77.76 127.053 79.36C128.413 80.96 129.093 83.08 129.093 85.72C129.093 86.84 128.933 88 128.613 89.2H120.333C120.533 88.64 120.633 88 120.633 87.28C120.633 86.36 120.353 85.6 119.793 85C119.273 84.4 118.533 84.1 117.573 84.1C116.493 84.1 115.653 84.48 115.053 85.24C114.453 85.96 114.153 86.98 114.153 88.3V106H105.153V77.56H114.153ZM147.594 98.86C149.154 98.86 150.354 98.54 151.194 97.9C152.074 97.22 152.734 96.3 153.174 95.14L160.794 98.14C159.834 100.74 158.194 102.8 155.874 104.32C153.594 105.84 150.794 106.6 147.474 106.6C144.554 106.6 141.934 105.98 139.614 104.74C137.294 103.46 135.454 101.7 134.094 99.46C132.774 97.18 132.114 94.56 132.114 91.6C132.114 88.92 132.714 86.46 133.914 84.22C135.154 81.98 136.874 80.22 139.074 78.94C141.274 77.62 143.774 76.96 146.574 76.96C150.734 76.96 154.014 78.16 156.414 80.56C158.854 82.92 160.074 86.08 160.074 90.04C160.074 91.2 159.954 92.42 159.714 93.7H141.114C141.274 95.22 141.934 96.46 143.094 97.42C144.294 98.38 145.794 98.86 147.594 98.86ZM146.574 83.98C145.414 83.98 144.314 84.3 143.274 84.94C142.274 85.58 141.554 86.5 141.114 87.7H151.434C151.434 86.62 150.994 85.74 150.114 85.06C149.274 84.34 148.094 83.98 146.574 83.98ZM173.942 77.56V81.1C175.062 79.86 176.382 78.86 177.902 78.1C179.462 77.34 181.142 76.96 182.942 76.96C185.462 76.96 187.762 77.58 189.842 78.82C191.962 80.02 193.642 81.76 194.882 84.04C196.122 86.28 196.742 88.9 196.742 91.9C196.742 94.9 196.122 97.52 194.882 99.76C193.642 101.96 191.942 103.66 189.782 104.86C187.662 106.02 185.282 106.6 182.642 106.6C180.642 106.6 178.902 106.24 177.422 105.52C175.942 104.76 174.882 103.82 174.242 102.7V117.88H165.242V77.56H173.942ZM173.942 91.9C173.942 94.18 174.602 95.96 175.922 97.24C177.282 98.48 178.922 99.1 180.842 99.1C182.762 99.1 184.382 98.48 185.702 97.24C187.062 95.96 187.742 94.18 187.742 91.9C187.742 89.5 187.082 87.66 185.762 86.38C184.442 85.1 182.802 84.46 180.842 84.46C178.882 84.46 177.242 85.1 175.922 86.38C174.602 87.66 173.942 89.5 173.942 91.9ZM210.556 77.56V80.8C211.156 79.68 212.036 78.76 213.196 78.04C214.396 77.32 215.796 76.96 217.396 76.96C220.116 76.96 222.136 77.76 223.456 79.36C224.816 80.96 225.496 83.08 225.496 85.72C225.496 86.84 225.336 88 225.016 89.2H216.736C216.936 88.64 217.036 88 217.036 87.28C217.036 86.36 216.756 85.6 216.196 85C215.676 84.4 214.936 84.1 213.976 84.1C212.896 84.1 212.056 84.48 211.456 85.24C210.856 85.96 210.556 86.98 210.556 88.3V106H201.556V77.56H210.556ZM243.997 98.86C245.557 98.86 246.757 98.54 247.597 97.9C248.477 97.22 249.137 96.3 249.577 95.14L257.197 98.14C256.237 100.74 254.597 102.8 252.277 104.32C249.997 105.84 247.197 106.6 243.877 106.6C240.957 106.6 238.337 105.98 236.017 104.74C233.697 103.46 231.857 101.7 230.497 99.46C229.177 97.18 228.517 94.56 228.517 91.6C228.517 88.92 229.117 86.46 230.317 84.22C231.557 81.98 233.277 80.22 235.477 78.94C237.677 77.62 240.177 76.96 242.977 76.96C247.137 76.96 250.417 78.16 252.817 80.56C255.257 82.92 256.477 86.08 256.477 90.04C256.477 91.2 256.357 92.42 256.117 93.7H237.517C237.677 95.22 238.337 96.46 239.497 97.42C240.697 98.38 242.197 98.86 243.997 98.86ZM242.977 83.98C241.817 83.98 240.717 84.3 239.677 84.94C238.677 85.58 237.957 86.5 237.517 87.7H247.837C247.837 86.62 247.397 85.74 246.517 85.06C245.677 84.34 244.497 83.98 242.977 83.98ZM261.645 106V77.56H270.645V80.92C271.525 79.64 272.705 78.66 274.185 77.98C275.705 77.3 277.325 76.96 279.045 76.96C282.285 76.96 284.845 77.88 286.725 79.72C288.605 81.56 289.545 84.12 289.545 87.4V106H280.545V89.5C280.545 87.86 280.105 86.56 279.225 85.6C278.385 84.6 277.225 84.1 275.745 84.1C274.185 84.1 272.945 84.64 272.025 85.72C271.105 86.8 270.645 88.36 270.645 90.4V106H261.645ZM309.828 98.86C311.388 98.86 312.588 98.54 313.428 97.9C314.308 97.22 314.968 96.3 315.408 95.14L323.028 98.14C322.068 100.74 320.428 102.8 318.108 104.32C315.828 105.84 313.028 106.6 309.708 106.6C306.788 106.6 304.168 105.98 301.848 104.74C299.528 103.46 297.688 101.7 296.328 99.46C295.008 97.18 294.348 94.56 294.348 91.6C294.348 88.92 294.948 86.46 296.148 84.22C297.388 81.98 299.108 80.22 301.308 78.94C303.508 77.62 306.008 76.96 308.808 76.96C312.968 76.96 316.248 78.16 318.648 80.56C321.088 82.92 322.308 86.08 322.308 90.04C322.308 91.2 322.188 92.42 321.948 93.7H303.348C303.508 95.22 304.168 96.46 305.328 97.42C306.528 98.38 308.028 98.86 309.828 98.86ZM308.808 83.98C307.648 83.98 306.548 84.3 305.508 84.94C304.508 85.58 303.788 86.5 303.348 87.7H313.668C313.668 86.62 313.228 85.74 312.348 85.06C311.508 84.34 310.328 83.98 308.808 83.98ZM355.976 77.56V106H346.976V102.1C346.376 103.46 345.316 104.56 343.796 105.4C342.276 106.2 340.536 106.6 338.576 106.6C335.176 106.6 332.476 105.66 330.476 103.78C328.476 101.9 327.476 99.14 327.476 95.5V77.56H336.476V93.1C336.476 96.9 338.076 98.8 341.276 98.8C343.156 98.8 344.576 98.2 345.536 97C346.496 95.76 346.976 94.06 346.976 91.9V77.56H355.976ZM371.325 77.56V80.8C371.925 79.68 372.805 78.76 373.965 78.04C375.165 77.32 376.565 76.96 378.165 76.96C380.885 76.96 382.905 77.76 384.225 79.36C385.585 80.96 386.265 83.08 386.265 85.72C386.265 86.84 386.105 88 385.785 89.2H377.505C377.705 88.64 377.805 88 377.805 87.28C377.805 86.36 377.525 85.6 376.965 85C376.445 84.4 375.705 84.1 374.745 84.1C373.665 84.1 372.825 84.48 372.225 85.24C371.625 85.96 371.325 86.98 371.325 88.3V106H362.325V77.56H371.325ZM399.964 77.56V106H390.964V77.56H399.964ZM390.664 64.6H400.264V73.9H390.664V64.6ZM414.341 106.6C412.661 106.6 411.101 106.24 409.661 105.52C408.261 104.76 407.141 103.72 406.301 102.4C405.461 101.04 405.041 99.46 405.041 97.66C405.041 94.7 406.021 92.46 407.981 90.94C409.981 89.38 412.761 88.6 416.321 88.6C417.881 88.6 419.441 88.78 421.001 89.14L423.041 89.62V88.18C423.041 86.82 422.601 85.76 421.721 85C420.881 84.24 419.661 83.86 418.061 83.86C416.541 83.86 415.321 84.22 414.401 84.94C413.481 85.62 412.881 86.54 412.601 87.7L404.981 85.66C405.861 82.98 407.421 80.86 409.661 79.3C411.901 77.74 414.721 76.96 418.121 76.96C422.681 76.96 426.081 77.96 428.321 79.96C430.601 81.96 431.741 84.86 431.741 88.66V106H423.641V102.1C422.441 103.74 421.141 104.9 419.741 105.58C418.341 106.26 416.541 106.6 414.341 106.6ZM417.941 100.24C419.421 100.24 420.641 99.84 421.601 99.04C422.561 98.24 423.041 97.16 423.041 95.8V95.62L421.901 95.14C420.581 94.58 419.201 94.3 417.761 94.3C416.601 94.3 415.681 94.56 415.001 95.08C414.361 95.6 414.041 96.34 414.041 97.3C414.041 98.22 414.381 98.94 415.061 99.46C415.741 99.98 416.701 100.24 417.941 100.24ZM438.103 64H447.103V106H438.103V64ZM27.38 142.4C26.62 140 25.54 138.26 24.14 137.18C22.74 136.06 20.92 135.5 18.68 135.5C16.96 135.5 15.58 135.88 14.54 136.64C13.5 137.36 12.98 138.28 12.98 139.4C12.98 140.92 13.76 142.1 15.32 142.94C16.88 143.78 19.04 144.46 21.8 144.98C25.4 145.66 28.28 146.5 30.44 147.5C32.64 148.46 34.28 149.78 35.36 151.46C36.44 153.1 36.98 155.22 36.98 157.82C36.98 160.26 36.3 162.46 34.94 164.42C33.58 166.34 31.6 167.86 29 168.98C26.44 170.06 23.4 170.6 19.88 170.6C15.52 170.6 11.58 169.64 8.06 167.72C4.54 165.8 1.88 162.56 0.0800001 158L8.18 152.9C9.06 155.98 10.54 158.3 12.62 159.86C14.74 161.42 17.26 162.2 20.18 162.2C22.34 162.2 24.08 161.84 25.4 161.12C26.72 160.4 27.38 159.4 27.38 158.12C27.38 157.12 27.12 156.3 26.6 155.66C26.08 155.02 25.14 154.46 23.78 153.98C22.46 153.5 20.56 153.08 18.08 152.72C13.64 152.08 10.08 150.68 7.4 148.52C4.72 146.36 3.38 143.28 3.38 139.28C3.38 137.12 4 135.14 5.24 133.34C6.52 131.5 8.34 130.06 10.7 129.02C13.06 127.94 15.82 127.4 18.98 127.4C22.98 127.4 26.38 128.3 29.18 130.1C31.98 131.86 33.98 134.46 35.18 137.9L27.38 142.4ZM70.1066 141.56V170H61.1066V166.1C60.5066 167.46 59.4466 168.56 57.9266 169.4C56.4066 170.2 54.6666 170.6 52.7066 170.6C49.3066 170.6 46.6066 169.66 44.6066 167.78C42.6066 165.9 41.6066 163.14 41.6066 159.5V141.56H50.6066V157.1C50.6066 160.9 52.2066 162.8 55.4066 162.8C57.2866 162.8 58.7066 162.2 59.6666 161C60.6266 159.76 61.1066 158.06 61.1066 155.9V141.56H70.1066ZM85.4558 141.56V144.5C86.9758 142.14 89.1758 140.96 92.0558 140.96C93.6958 140.96 95.1558 141.38 96.4358 142.22C97.7158 143.06 98.6558 144.22 99.2558 145.7C101.216 142.54 104.016 140.96 107.656 140.96C110.776 140.96 113.256 141.84 115.096 143.6C116.936 145.36 117.856 147.76 117.856 150.8V170H108.856V152.3C108.856 150.98 108.516 149.96 107.836 149.24C107.196 148.48 106.336 148.1 105.256 148.1C104.056 148.1 103.156 148.52 102.556 149.36C101.956 150.2 101.656 151.38 101.656 152.9V170H92.6558V152.3C92.6558 150.98 92.3358 150 91.6958 149.36C91.0558 148.72 90.1758 148.4 89.0558 148.4C87.9758 148.4 87.0958 148.8 86.4158 149.6C85.7758 150.36 85.4558 151.46 85.4558 152.9V170H76.4558V141.56H85.4558ZM133.196 141.56V144.5C134.716 142.14 136.916 140.96 139.796 140.96C141.436 140.96 142.896 141.38 144.176 142.22C145.456 143.06 146.396 144.22 146.996 145.7C148.956 142.54 151.756 140.96 155.396 140.96C158.516 140.96 160.996 141.84 162.836 143.6C164.676 145.36 165.596 147.76 165.596 150.8V170H156.596V152.3C156.596 150.98 156.256 149.96 155.576 149.24C154.936 148.48 154.076 148.1 152.996 148.1C151.796 148.1 150.896 148.52 150.296 149.36C149.696 150.2 149.396 151.38 149.396 152.9V170H140.396V152.3C140.396 150.98 140.076 150 139.436 149.36C138.796 148.72 137.916 148.4 136.796 148.4C135.716 148.4 134.836 148.8 134.156 149.6C133.516 150.36 133.196 151.46 133.196 152.9V170H124.196V141.56H133.196ZM180.935 141.56V170H171.935V141.56H180.935ZM171.635 128.6H181.235V137.9H171.635V128.6ZM201.853 170.6C198.253 170.6 195.473 169.64 193.513 167.72C191.593 165.8 190.633 163.16 190.633 159.8V148.76H184.633V141.56H190.633V131.9H199.633V141.56H210.133V148.76H199.633V159.5C199.633 160.46 199.873 161.2 200.353 161.72C200.833 162.24 201.533 162.5 202.453 162.5C204.133 162.5 205.093 161.46 205.333 159.38L213.493 160.76C212.973 163.88 211.713 166.3 209.713 168.02C207.753 169.74 205.133 170.6 201.853 170.6ZM239.78 141.56V170H230.78V141.56H239.78ZM230.48 128.6H240.08V137.9H230.48V128.6ZM246.117 170V141.56H255.117V144.92C255.997 143.64 257.177 142.66 258.657 141.98C260.177 141.3 261.797 140.96 263.517 140.96C266.757 140.96 269.317 141.88 271.197 143.72C273.077 145.56 274.017 148.12 274.017 151.4V170H265.017V153.5C265.017 151.86 264.577 150.56 263.697 149.6C262.857 148.6 261.697 148.1 260.217 148.1C258.657 148.1 257.417 148.64 256.497 149.72C255.577 150.8 255.117 152.36 255.117 154.4V170H246.117ZM308.189 170.6C304.589 170.6 301.809 169.64 299.849 167.72C297.929 165.8 296.969 163.16 296.969 159.8V148.76H290.969V141.56H296.969V131.9H305.969V141.56H316.469V148.76H305.969V159.5C305.969 160.46 306.209 161.2 306.689 161.72C307.169 162.24 307.869 162.5 308.789 162.5C310.469 162.5 311.429 161.46 311.669 159.38L319.829 160.76C319.309 163.88 318.049 166.3 316.049 168.02C314.089 169.74 311.469 170.6 308.189 170.6ZM323.536 170V128H332.536V146C333.536 144.28 334.836 143.02 336.436 142.22C338.036 141.38 339.736 140.96 341.536 140.96C344.936 140.96 347.576 141.98 349.456 144.02C351.376 146.06 352.336 148.82 352.336 152.3V170H343.336V154.1C343.336 152.42 342.876 151.06 341.956 150.02C341.076 148.98 339.836 148.46 338.236 148.46C336.556 148.46 335.176 149.1 334.096 150.38C333.056 151.66 332.536 153.4 332.536 155.6V170H323.536ZM372.598 162.86C374.158 162.86 375.358 162.54 376.198 161.9C377.078 161.22 377.738 160.3 378.178 159.14L385.798 162.14C384.838 164.74 383.198 166.8 380.878 168.32C378.598 169.84 375.798 170.6 372.478 170.6C369.558 170.6 366.938 169.98 364.618 168.74C362.298 167.46 360.458 165.7 359.098 163.46C357.778 161.18 357.118 158.56 357.118 155.6C357.118 152.92 357.718 150.46 358.918 148.22C360.158 145.98 361.878 144.22 364.078 142.94C366.278 141.62 368.778 140.96 371.578 140.96C375.738 140.96 379.018 142.16 381.418 144.56C383.858 146.92 385.078 150.08 385.078 154.04C385.078 155.2 384.958 156.42 384.718 157.7H366.118C366.278 159.22 366.938 160.46 368.098 161.42C369.298 162.38 370.798 162.86 372.598 162.86ZM371.578 147.98C370.418 147.98 369.318 148.3 368.278 148.94C367.278 149.58 366.558 150.5 366.118 151.7H376.438C376.438 150.62 375.998 149.74 375.118 149.06C374.278 148.34 373.098 147.98 371.578 147.98ZM12.44 234H2.84V192H19.28L34.64 227.58V192H44.24V234H27.8L12.44 198.42V234ZM64.5416 234.6C61.6616 234.6 59.0616 233.98 56.7416 232.74C54.4616 231.46 52.6616 229.7 51.3416 227.46C50.0616 225.18 49.4216 222.62 49.4216 219.78C49.4216 216.94 50.0616 214.4 51.3416 212.16C52.6616 209.88 54.4616 208.12 56.7416 206.88C59.0616 205.6 61.6616 204.96 64.5416 204.96C67.4216 204.96 70.0016 205.6 72.2816 206.88C74.6016 208.12 76.4016 209.88 77.6816 212.16C79.0016 214.4 79.6616 216.94 79.6616 219.78C79.6616 222.62 79.0016 225.18 77.6816 227.46C76.4016 229.7 74.6016 231.46 72.2816 232.74C70.0016 233.98 67.4216 234.6 64.5416 234.6ZM64.5416 226.5C66.3816 226.5 67.9016 225.9 69.1016 224.7C70.3416 223.46 70.9616 221.82 70.9616 219.78C70.9616 217.74 70.3416 216.12 69.1016 214.92C67.9016 213.68 66.3816 213.06 64.5416 213.06C62.7016 213.06 61.1616 213.68 59.9216 214.92C58.7216 216.12 58.1216 217.74 58.1216 219.78C58.1216 221.82 58.7216 223.46 59.9216 224.7C61.1616 225.9 62.7016 226.5 64.5416 226.5ZM93.4831 205.56V208.8C94.0831 207.68 94.9631 206.76 96.1231 206.04C97.3231 205.32 98.7231 204.96 100.323 204.96C103.043 204.96 105.063 205.76 106.383 207.36C107.743 208.96 108.423 211.08 108.423 213.72C108.423 214.84 108.263 216 107.943 217.2H99.6631C99.8631 216.64 99.9631 216 99.9631 215.28C99.9631 214.36 99.6831 213.6 99.1231 213C98.6031 212.4 97.8631 212.1 96.9031 212.1C95.8231 212.1 94.9831 212.48 94.3831 213.24C93.7831 213.96 93.4831 214.98 93.4831 216.3V234H84.4831V205.56H93.4831ZM127.701 234.6C124.101 234.6 121.321 233.64 119.361 231.72C117.441 229.8 116.481 227.16 116.481 223.8V212.76H110.481V205.56H116.481V195.9H125.481V205.56H135.981V212.76H125.481V223.5C125.481 224.46 125.721 225.2 126.201 225.72C126.681 226.24 127.381 226.5 128.301 226.5C129.981 226.5 130.941 225.46 131.181 223.38L139.341 224.76C138.821 227.88 137.561 230.3 135.561 232.02C133.601 233.74 130.981 234.6 127.701 234.6ZM143.049 234V192H152.049V210C153.049 208.28 154.349 207.02 155.949 206.22C157.549 205.38 159.249 204.96 161.049 204.96C164.449 204.96 167.089 205.98 168.969 208.02C170.889 210.06 171.849 212.82 171.849 216.3V234H162.849V218.1C162.849 216.42 162.389 215.06 161.469 214.02C160.589 212.98 159.349 212.46 157.749 212.46C156.069 212.46 154.689 213.1 153.609 214.38C152.569 215.66 152.049 217.4 152.049 219.6V234H143.049ZM196.071 214.8V222.9H177.471V214.8H196.071ZM234.552 192V200.7H211.692V208.2H232.752V216.9H211.692V225.3H235.152V234H202.092V192H234.552ZM248.371 234.6C246.691 234.6 245.131 234.24 243.691 233.52C242.291 232.76 241.171 231.72 240.331 230.4C239.491 229.04 239.071 227.46 239.071 225.66C239.071 222.7 240.051 220.46 242.011 218.94C244.011 217.38 246.791 216.6 250.351 216.6C251.911 216.6 253.471 216.78 255.031 217.14L257.071 217.62V216.18C257.071 214.82 256.631 213.76 255.751 213C254.911 212.24 253.691 211.86 252.091 211.86C250.571 211.86 249.351 212.22 248.431 212.94C247.511 213.62 246.911 214.54 246.631 215.7L239.011 213.66C239.891 210.98 241.451 208.86 243.691 207.3C245.931 205.74 248.751 204.96 252.151 204.96C256.711 204.96 260.111 205.96 262.351 207.96C264.631 209.96 265.771 212.86 265.771 216.66V234H257.671V230.1C256.471 231.74 255.171 232.9 253.771 233.58C252.371 234.26 250.571 234.6 248.371 234.6ZM251.971 228.24C253.451 228.24 254.671 227.84 255.631 227.04C256.591 226.24 257.071 225.16 257.071 223.8V223.62L255.931 223.14C254.611 222.58 253.231 222.3 251.791 222.3C250.631 222.3 249.711 222.56 249.031 223.08C248.391 223.6 248.071 224.34 248.071 225.3C248.071 226.22 248.411 226.94 249.091 227.46C249.771 227.98 250.731 228.24 251.971 228.24ZM269.739 227.16L276.639 223.5C277.239 224.78 278.119 225.76 279.279 226.44C280.439 227.08 281.699 227.4 283.059 227.4C284.339 227.4 285.299 227.2 285.939 226.8C286.619 226.4 286.959 225.86 286.959 225.18C286.959 224.46 286.519 223.9 285.639 223.5C284.799 223.06 283.159 222.66 280.719 222.3C277.719 221.86 275.359 220.92 273.639 219.48C271.919 218 271.059 216.04 271.059 213.6C271.059 211.88 271.579 210.36 272.619 209.04C273.659 207.72 275.019 206.72 276.699 206.04C278.419 205.32 280.239 204.96 282.159 204.96C285.319 204.96 287.759 205.48 289.479 206.52C291.239 207.56 292.539 209 293.379 210.84L286.539 214.5C286.259 213.62 285.739 212.96 284.979 212.52C284.259 212.08 283.419 211.86 282.459 211.86C281.579 211.86 280.859 212.02 280.299 212.34C279.739 212.66 279.459 213.08 279.459 213.6C279.459 214.2 279.819 214.7 280.539 215.1C281.299 215.5 282.739 215.86 284.859 216.18C288.619 216.74 291.279 217.76 292.839 219.24C294.439 220.68 295.239 222.7 295.239 225.3C295.239 227.1 294.699 228.7 293.619 230.1C292.539 231.5 291.039 232.6 289.119 233.4C287.239 234.2 285.119 234.6 282.759 234.6C276.239 234.6 271.899 232.12 269.739 227.16ZM313.828 234.6C310.228 234.6 307.448 233.64 305.488 231.72C303.568 229.8 302.608 227.16 302.608 223.8V212.76H296.608V205.56H302.608V195.9H311.608V205.56H322.108V212.76H311.608V223.5C311.608 224.46 311.848 225.2 312.328 225.72C312.808 226.24 313.508 226.5 314.428 226.5C316.108 226.5 317.068 225.46 317.308 223.38L325.468 224.76C324.948 227.88 323.688 230.3 321.688 232.02C319.728 233.74 317.108 234.6 313.828 234.6Z" fill="#4AE675"/>
</svg>
