<svg width="64" height="64" viewBox="0 0 64 64" fill="none" xmlns="http://www.w3.org/2000/svg">
<path d="M32 0L38.6258 7.2723L48 4.28719L50.1019 13.8981L59.7128 16L56.7277 25.3742L64 32L56.7277 38.6258L59.7128 48L50.1019 50.1019L48 59.7128L38.6258 56.7277L32 64L25.3742 56.7277L16 59.7128L13.8981 50.1019L4.28719 48L7.2723 38.6258L0 32L7.2723 25.3742L4.28719 16L13.8981 13.8981L16 4.28719L25.3742 7.2723L32 0Z" fill="#F3F173"/>
<path d="M24.9031 29.4865L24.9031 29.4865C25.3465 26.3877 28.139 23.5097 32 23.5097C35.9298 23.5097 39.2104 26.5984 39.2156 30.4661V30.4663C39.2156 32.2085 38.5476 33.8933 37.2709 35.1961C36.1711 36.3205 35.5898 37.9185 35.5898 39.678V39.6784L35.5847 42.4304L24.9031 29.4865ZM24.9031 29.4865L24.9028 29.4881M24.9031 29.4865L24.9028 29.4881M24.9028 29.4881C24.6265 31.553 25.2945 33.5649 26.6791 35.0849L26.6791 35.0849M24.9028 29.4881L26.6791 35.0849M26.6791 35.0849L26.6808 35.0867M26.6791 35.0849L26.6808 35.0867M26.6808 35.0867C27.8373 36.3223 28.4712 37.9747 28.4712 39.678L28.4661 42.43V42.4304M26.6808 35.0867L28.4661 42.4304M28.4661 42.4304C28.4661 43.6441 29.4684 44.6186 30.7 44.6186M28.4661 42.4304L30.7 44.6186M30.7 44.6186H33.3508M30.7 44.6186H33.3508M33.3508 44.6186C34.5823 44.6186 35.5845 43.6443 35.5847 42.4307L33.3508 44.6186ZM34.1942 42.4304V42.5191C34.1498 42.905 33.8186 43.2078 33.4016 43.2078H30.7508C30.3017 43.2078 29.9531 42.862 29.9531 42.4304V41.3889H34.1942V42.4304ZM34.1536 39.678V39.9781H29.9125V39.678C29.9125 37.67 29.0808 35.6732 27.703 34.1606L27.703 34.1606L27.7013 34.1588C26.5515 32.9304 26.0786 31.3443 26.285 29.6983C26.6545 27.2425 28.9445 24.9256 32.0051 24.9256C35.2138 24.9256 37.7794 27.4468 37.7794 30.4663C37.7794 31.8473 37.2539 33.179 36.2606 34.2071C34.8734 35.6206 34.1536 37.5713 34.1536 39.678Z" fill="#212121" stroke="#212121" stroke-width="0.354545"/>
<path d="M32.7156 19.5586V19.3813H32.5384H31.4567H31.2795V19.5586V22.0977V22.2749H31.4567H32.5384H32.7156V22.0977V19.5586Z" fill="#212121" stroke="#212121" stroke-width="0.354545"/>
<path d="M38.4329 24.3262L38.303 24.4515L38.4306 24.5792L39.1873 25.3358L39.3102 25.4587L39.4355 25.3382L41.289 23.5558L41.4197 23.4301L41.2911 23.3023L40.5293 22.5456L40.4062 22.4233L40.2814 22.5438L38.4329 24.3262Z" fill="#212121" stroke="#212121" stroke-width="0.354545"/>
<path d="M44.6188 30.9946V30.8174H44.4415H41.7907H41.6134V30.9946V32.056V32.2332H41.7907H44.4415H44.6188V32.056V30.9946Z" fill="#212121" stroke="#212121" stroke-width="0.354545"/>
<path d="M22.3866 30.9946V30.8174H22.2094H19.5586H19.3813V30.9946V32.056V32.2332H19.5586H22.2094H22.3866V32.056V30.9946Z" fill="#212121" stroke="#212121" stroke-width="0.354545"/>
<path d="M23.6986 22.5389L23.5737 22.4185L23.4506 22.5407L22.6889 23.2974L22.5602 23.4252L22.6909 23.5509L24.5444 25.3333L24.6697 25.4538L24.7926 25.3309L25.5493 24.5743L25.6769 24.4466L25.547 24.3213L23.6986 22.5389Z" fill="#212121" stroke="#212121" stroke-width="0.354545"/>
</svg>
