<svg width="120" height="120" viewBox="0 0 120 120" fill="none" xmlns="http://www.w3.org/2000/svg">
<path d="M60 0L73.7766 26.7403L102.426 17.5736L93.2597 46.2234L120 60L93.2597 73.7766L102.426 102.426L73.7766 93.2597L60 120L46.2234 93.2597L17.5736 102.426L26.7403 73.7766L0 60L26.7403 46.2234L17.5736 17.5736L46.2234 26.7403L60 0Z" fill="#2DF771"/>
<path d="M46.6933 55.2876L46.6933 55.2876C47.5247 49.4774 52.7606 44.0812 60.0001 44.0812C67.3684 44.0812 73.5195 49.8724 73.5292 57.1243V57.1248C73.5292 60.3915 72.2767 63.5506 69.8827 65.9934C67.8208 68.1015 66.7309 71.0977 66.7309 74.3967V74.3973L66.7214 79.5574L46.6933 55.2876ZM46.6933 55.2876L46.6929 55.2906M46.6933 55.2876L46.6929 55.2906M46.6929 55.2906C46.1747 59.1622 47.4272 62.9347 50.0234 65.7846L50.0234 65.7847M46.6929 55.2906L50.0234 65.7847M50.0234 65.7847L50.0265 65.7879M50.0234 65.7847L50.0265 65.7879M50.0265 65.7879C52.1949 68.1046 53.3834 71.2027 53.3835 74.3964C53.3835 74.3965 53.3835 74.3966 53.3835 74.3967L53.374 79.5568V79.5574M50.0265 65.7879L53.374 79.5574M53.374 79.5574C53.374 81.8331 55.2533 83.6603 57.5626 83.6603M53.374 79.5574L57.5626 83.6603M57.5626 83.6603H62.5328M57.5626 83.6603H62.5328M62.5328 83.6603C64.8419 83.6603 66.721 81.8335 66.7214 79.558L62.5328 83.6603ZM64.1142 79.5574V79.7238C64.0309 80.4473 63.4099 81.015 62.628 81.015H57.6578C56.8157 81.015 56.1621 80.3667 56.1621 79.5574V77.6046H64.1142V79.5574ZM64.0381 74.3967V74.9594H56.0859V74.3967C56.0859 70.6316 54.5266 66.8876 51.9431 64.0516L51.9431 64.0515L51.94 64.0483C49.7841 61.7449 48.8974 58.771 49.2845 55.6848C49.9772 51.0801 54.271 46.736 60.0096 46.736C66.0258 46.736 70.8364 51.4632 70.8364 57.1248C70.8364 59.7142 69.8511 62.2112 67.9885 64.1387C65.3876 66.7891 64.0381 70.4467 64.0381 74.3967Z" fill="#212121" stroke="#212121" stroke-width="0.664773"/>
<path d="M61.3409 36.6724V36.34H61.0085H58.9805H58.6481V36.6724V41.4331V41.7655H58.9805H61.0085H61.3409V41.4331V36.6724Z" fill="#212121" stroke="#212121" stroke-width="0.664773"/>
<path d="M72.0603 45.6121L71.8166 45.847L72.056 46.0864L73.4747 47.5051L73.7052 47.7355L73.9401 47.5096L77.4155 44.1676L77.6606 43.9318L77.4193 43.6922L75.9911 42.2735L75.7603 42.0442L75.5261 42.27L72.0603 45.6121Z" fill="#212121" stroke="#212121" stroke-width="0.664773"/>
<path d="M83.66 58.1145V57.7821H83.3276H78.3574H78.025V58.1145V60.1045V60.4369H78.3574H83.3276H83.66V60.1045V58.1145Z" fill="#212121" stroke="#212121" stroke-width="0.664773"/>
<path d="M41.9745 58.1145V57.7821H41.6421H36.6719H36.3395V58.1145V60.1045V60.4369H36.6719H41.6421H41.9745V60.1045V58.1145Z" fill="#212121" stroke="#212121" stroke-width="0.664773"/>
<path d="M44.4343 42.26L44.2002 42.0342L43.9694 42.2635L42.5411 43.6822L42.2999 43.9218L42.545 44.1576L46.0203 47.4996L46.2553 47.7255L46.4858 47.495L47.9045 46.0763L48.1438 45.837L47.9002 45.602L44.4343 42.26Z" fill="#212121" stroke="#212121" stroke-width="0.664773"/>
</svg>
