<svg width="176" height="83" viewBox="0 0 176 83" fill="none" xmlns="http://www.w3.org/2000/svg">
<path d="M11.1343 35.4878V44.6267C11.1343 46.223 10.7086 47.4735 9.85722 48.3781C9.01915 49.2826 7.7687 49.7349 6.10588 49.7349C4.44305 49.7349 3.18595 49.2826 2.33458 48.3781C1.49652 47.4735 1.07748 46.223 1.07748 44.6267V35.4878H3.7114V44.6267C3.7114 45.4515 3.90429 46.0967 4.29007 46.5622C4.67584 47.0278 5.28111 47.2606 6.10588 47.2606C6.93064 47.2606 7.53591 47.0278 7.92168 46.5622C8.30746 46.0967 8.50035 45.4515 8.50035 44.6267V35.4878H11.1343ZM12.7367 35.4878H17.805C19.5343 35.4878 20.818 35.8935 21.6561 36.705C22.4941 37.5032 22.9132 38.747 22.9132 40.4364V44.507C22.9132 46.1964 22.4941 47.4469 21.6561 48.2583C20.818 49.0565 19.5343 49.4556 17.805 49.4556H12.7367V46.9214H14.0536V38.002H12.7367V35.4878ZM17.805 46.9414C18.7228 46.9414 19.3614 46.7285 19.7205 46.3028C20.093 45.8639 20.2793 45.1854 20.2793 44.2675V40.4364C20.2793 39.6382 20.093 39.033 19.7205 38.6206C19.3614 38.2082 18.7228 38.002 17.805 38.002H16.6875V46.9414H17.805ZM28.8256 42.3919H34.8118V49.4556H32.4173V47.8992H32.0582C31.8985 48.418 31.5926 48.8569 31.1403 49.2161C30.688 49.562 30.0096 49.7349 29.105 49.7349C28.4665 49.7349 27.8678 49.6152 27.3091 49.3758C26.7504 49.1363 26.2649 48.7838 25.8525 48.3182C25.4401 47.8393 25.1142 47.254 24.8747 46.5622C24.6353 45.8572 24.5156 45.0391 24.5156 44.1079V40.8355C24.5156 39.9309 24.6419 39.1327 24.8947 38.441C25.1607 37.736 25.5199 37.144 25.9722 36.6651C26.4378 36.1862 26.9899 35.827 27.6284 35.5876C28.2669 35.3348 28.972 35.2085 29.7435 35.2085C30.5417 35.2085 31.2534 35.3415 31.8786 35.6075C32.5038 35.8603 33.0359 36.2195 33.4749 36.685C33.9139 37.1373 34.2464 37.6761 34.4726 38.3013C34.6987 38.9132 34.8118 39.5717 34.8118 40.2768V40.5162H32.1779V40.2768C32.1779 39.4387 31.9584 38.8068 31.5194 38.3811C31.0937 37.9421 30.4884 37.7226 29.7036 37.7226C28.9586 37.7226 28.3467 37.9754 27.8678 38.4809C27.3889 38.9731 27.1495 39.8245 27.1495 41.035V43.9882C27.1495 46.1432 28.0275 47.2207 29.7834 47.2207C30.5683 47.2207 31.1602 47.0145 31.5593 46.6022C31.9717 46.1765 32.1779 45.6111 32.1779 44.9061H28.8256V42.3919ZM43.9368 46.4625H39.1878L38.5094 49.4556H35.7557L39.088 35.4878H44.0366L47.3689 49.4556H44.6153L43.9368 46.4625ZM39.7465 43.9483H43.3582L41.7419 36.8048H41.3827L39.7465 43.9483ZM47.7142 35.4878H52.3435L53.1417 45.9836V48.0189H53.6206V45.9836L54.4187 35.4878H59.048V49.4556H56.6536V40.1171L56.893 36.9245H56.4141L55.3765 49.4556H51.4256L50.3481 36.9245H49.8692L50.1087 40.1171V49.4556H47.7142V35.4878Z" fill="white"/>
<path d="M89.6835 26.8291L98.347 1.88462L109.592 30.6523L89.6835 26.8291Z" stroke="white" stroke-width="1.30495"/>
<path d="M86.2044 67.0348L110.024 37.699L95.3276 81.3634L86.2044 67.0348Z" stroke="white" stroke-width="1.30495"/>
<path d="M86.2332 34.6293L87.2227 32.2635C88.7887 38.8763 90.2671 45.1193 91.838 51.7552L74.1017 43.7933C77.0771 38.3924 79.9828 33.1177 83.1199 27.4176C83.8205 30.0698 84.4043 32.2827 85.0004 34.5438L85.4908 36.4043L86.2332 34.6293Z" stroke="white" stroke-width="1.30495"/>
<path d="M89.9646 30.2878L109.274 33.9189L94.9762 51.6631C94.5345 49.7792 94.0996 47.9239 93.6679 46.0825C92.4346 40.8215 91.2277 35.6728 89.9646 30.2878Z" stroke="white" stroke-width="1.30495"/>
<path d="M91.6591 55.4447L84.6368 64.2408C83.5212 62.3982 82.4239 60.585 81.339 58.7921C79.1122 55.1124 76.9373 51.5184 74.7621 47.9326L91.6591 55.4447Z" stroke="white" stroke-width="1.30495"/>
<path d="M138.126 46.9414V49.4556H128.309V46.7019C128.309 45.9703 128.415 45.3451 128.628 44.8263C128.854 44.3074 129.167 43.8685 129.566 43.5093C129.978 43.1501 130.471 42.8575 131.043 42.6313C131.615 42.3919 132.26 42.1923 132.978 42.0327C133.51 41.913 133.943 41.78 134.275 41.6336C134.621 41.474 134.894 41.3011 135.093 41.1148C135.293 40.9153 135.426 40.7024 135.492 40.4763C135.572 40.2368 135.612 39.9708 135.612 39.6781C135.612 39.1194 135.406 38.6538 134.993 38.2814C134.594 37.9089 134.036 37.7226 133.317 37.7226C132.559 37.7226 131.954 37.9554 131.502 38.421C131.049 38.8733 130.823 39.5052 130.823 40.3167V41.1946H128.189V40.0772C128.189 39.4254 128.302 38.8068 128.528 38.2215C128.768 37.6229 129.1 37.1041 129.526 36.6651C129.965 36.2128 130.497 35.8603 131.122 35.6075C131.748 35.3415 132.453 35.2085 133.238 35.2085C134.076 35.2085 134.807 35.3348 135.432 35.5876C136.058 35.827 136.576 36.1463 136.989 36.5454C137.415 36.9444 137.727 37.41 137.927 37.9421C138.14 38.4609 138.246 38.9997 138.246 39.5584V39.7979C138.246 40.9685 137.913 41.9396 137.248 42.7111C136.596 43.4827 135.526 44.0414 134.036 44.3873C133.41 44.5336 132.892 44.6866 132.479 44.8462C132.08 44.9925 131.768 45.1588 131.541 45.3451C131.315 45.5313 131.156 45.7375 131.063 45.9636C130.983 46.1765 130.943 46.4226 130.943 46.7019V46.9414H138.126ZM143.26 42.4717C143.26 42.0194 143.427 41.627 143.759 41.2944C144.092 40.9618 144.484 40.7956 144.937 40.7956C145.389 40.7956 145.781 40.9618 146.114 41.2944C146.446 41.627 146.613 42.0194 146.613 42.4717C146.613 42.924 146.446 43.3164 146.114 43.649C145.781 43.9815 145.389 44.1478 144.937 44.1478C144.484 44.1478 144.092 43.9815 143.759 43.649C143.427 43.3164 143.26 42.924 143.26 42.4717ZM139.788 40.9153C139.788 39.1061 140.241 37.7027 141.145 36.705C142.063 35.7073 143.327 35.2085 144.937 35.2085C146.546 35.2085 147.803 35.7073 148.708 36.705C149.626 37.7027 150.085 39.1061 150.085 40.9153V44.0281C150.085 45.8905 149.626 47.3072 148.708 48.2783C147.803 49.2494 146.546 49.7349 144.937 49.7349C143.327 49.7349 142.063 49.2494 141.145 48.2783C140.241 47.3072 139.788 45.8905 139.788 44.0281V40.9153ZM144.937 47.3404C145.416 47.3404 145.815 47.2673 146.134 47.121C146.453 46.9613 146.713 46.7418 146.912 46.4625C147.112 46.1831 147.251 45.8506 147.331 45.4648C147.411 45.079 147.451 44.6533 147.451 44.1877V40.7556C147.451 40.3167 147.404 39.9043 147.311 39.5185C147.218 39.1327 147.072 38.8002 146.872 38.5208C146.673 38.2415 146.413 38.022 146.094 37.8623C145.775 37.6894 145.389 37.6029 144.937 37.6029C144.484 37.6029 144.099 37.6894 143.779 37.8623C143.46 38.022 143.201 38.2415 143.001 38.5208C142.802 38.8002 142.655 39.1327 142.562 39.5185C142.469 39.9043 142.422 40.3167 142.422 40.7556V44.1877C142.422 44.6533 142.462 45.079 142.542 45.4648C142.622 45.8506 142.762 46.1831 142.961 46.4625C143.161 46.7418 143.42 46.9613 143.739 47.121C144.059 47.2673 144.458 47.3404 144.937 47.3404ZM161.764 46.9414V49.4556H151.947V46.7019C151.947 45.9703 152.053 45.3451 152.266 44.8263C152.492 44.3074 152.805 43.8685 153.204 43.5093C153.616 43.1501 154.108 42.8575 154.68 42.6313C155.252 42.3919 155.897 42.1923 156.616 42.0327C157.148 41.913 157.58 41.78 157.913 41.6336C158.259 41.474 158.531 41.3011 158.731 41.1148C158.93 40.9153 159.063 40.7024 159.13 40.4763C159.21 40.2368 159.25 39.9708 159.25 39.6781C159.25 39.1194 159.043 38.6538 158.631 38.2814C158.232 37.9089 157.673 37.7226 156.955 37.7226C156.197 37.7226 155.591 37.9554 155.139 38.421C154.687 38.8733 154.461 39.5052 154.461 40.3167V41.1946H151.827V40.0772C151.827 39.4254 151.94 38.8068 152.166 38.2215C152.405 37.6229 152.738 37.1041 153.164 36.6651C153.603 36.2128 154.135 35.8603 154.76 35.6075C155.385 35.3415 156.09 35.2085 156.875 35.2085C157.713 35.2085 158.445 35.3348 159.07 35.5876C159.695 35.827 160.214 36.1463 160.626 36.5454C161.052 36.9444 161.365 37.41 161.564 37.9421C161.777 38.4609 161.884 38.9997 161.884 39.5584V39.7979C161.884 40.9685 161.551 41.9396 160.886 42.7111C160.234 43.4827 159.163 44.0414 157.673 44.3873C157.048 44.5336 156.529 44.6866 156.117 44.8462C155.718 44.9925 155.405 45.1588 155.179 45.3451C154.953 45.5313 154.793 45.7375 154.7 45.9636C154.62 46.1765 154.58 46.4226 154.58 46.7019V46.9414H161.764ZM167.736 46.9414V36.8048H167.377L166.06 41.5937H163.546V41.3543L165.222 35.4878H170.37V46.9414H173.842V49.4556H163.785V46.9414H167.736Z" fill="white"/>
</svg>
