<svg width="207" height="128" viewBox="0 0 207 128" fill="none" xmlns="http://www.w3.org/2000/svg">
<rect width="203" height="56" transform="translate(3.7168 57.9922) rotate(3.80562)" fill="#4AE675"/>
<path d="M20.9124 105.638C26.4202 106.005 31.0547 102.024 31.421 96.5158L32.7033 77.2384L26.8363 76.8481L25.5806 95.7264C25.3283 99.518 24.2935 100.612 21.2203 100.407C17.9475 100.19 17.1012 99.051 17.3587 95.1795L11.2921 94.776C11.0242 100.611 15.1252 105.253 20.9124 105.638ZM53.1565 107.382L59.3827 107.797L53.3066 78.6089L43.5282 77.9584L33.5598 106.079L39.5865 106.48L41.7513 99.8488L51.8889 100.523L53.1565 107.382ZM43.403 94.9075L47.129 83.4896L48.7255 83.5958L50.9064 95.4066L43.403 94.9075ZM62.9455 108.034L68.3336 108.392L69.8893 85.0036L71.8051 85.1311L76.2361 108.918L87.5711 109.672L89.4773 81.0149L84.0892 80.6565L82.5334 104.045L80.9768 103.941L76.6656 80.1627L64.8517 79.3769L62.9455 108.034ZM103.554 111.136C110.219 111.579 114.864 107.438 115.313 100.693L116.502 82.8126L110.635 82.4223L109.342 101.859C109.13 105.052 107.613 106.154 103.902 105.907C100.19 105.66 98.7555 104.322 98.9652 101.169L100.258 81.732L94.3911 81.3418L93.2017 99.2223C92.7504 106.007 96.8486 110.69 103.554 111.136ZM136.956 112.957L143.182 113.371L137.106 84.1831L127.327 83.5326L117.359 111.653L123.386 112.054L125.551 105.423L135.688 106.097L136.956 112.957ZM127.202 100.482L130.928 89.0638L132.525 89.17L134.706 100.981L127.202 100.482ZM168.776 115.073L162.505 103.271C166.159 101.991 168.712 99.1539 168.951 95.5618C169.299 90.3334 165.015 86.0395 159.028 85.6413L148.651 84.951L146.745 113.608L152.612 113.998L153.291 103.781L156.804 104.014L161.951 114.619L168.776 115.073ZM154.175 90.4899L158.885 90.8032C161.759 90.9944 163.124 92.1676 162.975 94.4026L162.872 95.9592C162.723 98.1942 161.254 99.1789 158.341 98.9851L153.631 98.6719L154.175 90.4899ZM195.591 88.0734L189.325 87.6566L183.933 101.209L181.02 101.015L177.511 86.8708L171.005 86.438L176.479 106.004L179.113 106.18L178.478 115.719L184.345 116.109L184.98 106.57L187.534 106.74L195.591 88.0734Z" fill="#212121"/>
<rect width="136" height="56" transform="translate(38.9443 18.7549) rotate(-7.92657)" fill="#4AE675"/>
<path d="M56.7378 62.7214L77.5768 59.8199L76.8597 54.6696L69.2531 55.7287L66.0096 32.4334L53.6884 34.1489L54.4055 39.2992L61.1009 38.367L63.6273 56.512L56.0207 57.5711L56.7378 62.7214ZM90.2604 38.5475C87.9625 38.8675 85.9841 40.0314 84.5463 41.8874L83.6196 35.2316L97.6443 33.2789L96.9272 28.1286L78.0692 30.7543L80.4577 47.9088L85.5684 47.1972C85.627 45.0082 86.9384 43.6948 89.7513 43.3032C92.8019 42.8784 94.5125 43.8518 94.86 46.3478L95.2185 48.9229C95.5826 51.5377 94.2822 52.9303 91.192 53.3606C88.3396 53.7578 86.9218 53.1474 86.3522 51.0863L80.4095 51.9137C82.0564 56.4903 86.6806 58.9562 91.8309 58.2391C98.2094 57.351 101.757 52.3742 100.979 46.7881C100.229 41.4001 95.8861 37.7643 90.2604 38.5475ZM104.506 47.7105L103.833 42.8771L114.213 41.4319L114.886 46.2653L104.506 47.7105ZM121.189 53.7476L140.958 50.9951L140.241 45.8447L126.058 47.8195L125.837 46.2348L131.982 41.058C136.169 37.7692 138.37 34.4338 137.873 30.8682C137.2 26.0348 132.743 22.738 126.681 23.582C120.659 24.4204 117.152 29.3917 117.473 34.3143L123.178 33.52C122.699 30.0732 124.032 28.9183 127.32 28.4605C130.569 28.0081 131.544 28.9224 131.831 30.9825L132.041 32.488C132.25 33.9934 131.341 35.2913 129.292 37.1112L119.926 44.6751L121.189 53.7476ZM159.149 48.4623L164.775 47.679L163.572 39.0423L168.524 38.3528L167.873 33.6779L162.921 34.3674L161.719 25.7307L156.093 26.514L157.296 35.1507L149.966 36.1712L147.859 21.0372L142.273 21.8149L145.031 41.6239L157.946 39.8256L159.149 48.4623Z" fill="#212121"/>
</svg>
