<svg width="120" height="120" viewBox="0 0 120 120" fill="none" xmlns="http://www.w3.org/2000/svg">
<path d="M60 0L73.7766 26.7403L102.426 17.5736L93.2597 46.2234L120 60L93.2597 73.7766L102.426 102.426L73.7766 93.2597L60 120L46.2234 93.2597L17.5736 102.426L26.7403 73.7766L0 60L26.7403 46.2234L17.5736 17.5736L46.2234 26.7403L60 0Z" fill="#2DF771"/>
<path d="M46.6935 55.2876L46.6935 55.2876C47.5249 49.4774 52.7608 44.0812 60.0003 44.0812C67.3686 44.0812 73.5197 49.8724 73.5295 57.1243V57.1248C73.5295 60.3915 72.2769 63.5506 69.883 65.9934C67.821 68.1015 66.7312 71.0977 66.7312 74.3967V74.3973L66.7216 79.5574L46.6935 55.2876ZM46.6935 55.2876L46.6931 55.2906M46.6935 55.2876L46.6931 55.2906M46.6931 55.2906C46.1749 59.1622 47.4275 62.9347 50.0237 65.7846L50.0236 65.7847M46.6931 55.2906L50.0236 65.7847M50.0236 65.7847L50.0267 65.7879M50.0236 65.7847L50.0267 65.7879M50.0267 65.7879C52.1951 68.1046 53.3837 71.2027 53.3838 74.3964C53.3838 74.3965 53.3838 74.3966 53.3838 74.3967L53.3742 79.5568V79.5574M50.0267 65.7879L53.3742 79.5574M53.3742 79.5574C53.3742 81.8331 55.2535 83.6603 57.5628 83.6603M53.3742 79.5574L57.5628 83.6603M57.5628 83.6603H62.533M57.5628 83.6603H62.533M62.533 83.6603C64.8422 83.6603 66.7213 81.8335 66.7216 79.558L62.533 83.6603ZM64.1145 79.5574V79.7238C64.0311 80.4473 63.4102 81.015 62.6283 81.015H57.658C56.8159 81.015 56.1623 80.3667 56.1623 79.5574V77.6046H64.1145V79.5574ZM64.0383 74.3967V74.9594H56.0861V74.3967C56.0861 70.6316 54.5269 66.8876 51.9433 64.0516L51.9433 64.0515L51.9403 64.0483C49.7843 61.7449 48.8977 58.771 49.2847 55.6848C49.9775 51.0801 54.2712 46.736 60.0098 46.736C66.0261 46.736 70.8366 51.4632 70.8366 57.1248C70.8366 59.7142 69.8513 62.2112 67.9888 64.1387C65.3878 66.7891 64.0383 70.4467 64.0383 74.3967Z" fill="#212121" stroke="#212121" stroke-width="0.664773"/>
<path d="M61.3419 36.6724V36.34H61.0095H58.9814H58.6491V36.6724V41.4331V41.7655H58.9814H61.0095H61.3419V41.4331V36.6724Z" fill="#212121" stroke="#212121" stroke-width="0.664773"/>
<path d="M72.0618 45.6121L71.8181 45.847L72.0574 46.0864L73.4761 47.5051L73.7066 47.7355L73.9416 47.5096L77.4169 44.1676L77.662 43.9318L77.4208 43.6922L75.9925 42.2735L75.7617 42.0442L75.5276 42.27L72.0618 45.6121Z" fill="#212121" stroke="#212121" stroke-width="0.664773"/>
<path d="M83.6603 58.1145V57.7821H83.3279H78.3577H78.0253V58.1145V60.1045V60.4369H78.3577H83.3279H83.6603V60.1045V58.1145Z" fill="#212121" stroke="#212121" stroke-width="0.664773"/>
<path d="M41.975 58.1145V57.7821H41.6426H36.6724H36.34V58.1145V60.1045V60.4369H36.6724H41.6426H41.975V60.1045V58.1145Z" fill="#212121" stroke="#212121" stroke-width="0.664773"/>
<path d="M44.4348 42.26L44.2007 42.0342L43.9699 42.2635L42.5416 43.6822L42.3004 43.9218L42.5455 44.1576L46.0208 47.4996L46.2558 47.7255L46.4863 47.495L47.905 46.0763L48.1443 45.837L47.9006 45.602L44.4348 42.26Z" fill="#212121" stroke="#212121" stroke-width="0.664773"/>
</svg>
