<svg width="169" height="58" viewBox="0 0 169 58" fill="none" xmlns="http://www.w3.org/2000/svg">
<path d="M12.0675 18.2983L17.5199 2.59958L24.5972 20.7045L12.0675 18.2983Z" stroke="white" stroke-width="1.8"/>
<path d="M9.60901 46.6042L24.3958 28.3932L15.2725 55.4991L9.60901 46.6042Z" stroke="white" stroke-width="1.8"/>
<path d="M9.49102 24.2314L9.6483 23.8553C10.5517 27.6701 11.4209 31.3405 12.3295 35.179L1.27564 30.2168C3.09065 26.9222 4.87435 23.6841 6.76906 20.2419C7.13452 21.6261 7.45974 22.8591 7.79045 24.1135L8.46698 26.6798L9.49102 24.2314Z" stroke="white" stroke-width="1.8"/>
<path d="M12.2631 21.6081L24.2706 23.8661L15.3795 34.9004C15.1442 33.8965 14.9113 32.9031 14.6797 31.9154C13.8739 28.4778 13.0842 25.1091 12.2631 21.6081Z" stroke="white" stroke-width="1.8"/>
<path d="M12.1393 38.6938L8.02094 43.8525C7.35981 42.7604 6.70755 41.6826 6.06154 40.6151C4.7666 38.4752 3.49679 36.3769 2.23102 34.2887L12.1393 38.6938Z" stroke="white" stroke-width="1.8"/>
<path d="M42.908 38.2C46.248 38.2 48.428 35.98 48.428 32.6V23.64H45.488V33.38C45.488 34.98 44.768 35.58 42.908 35.58C41.048 35.58 40.288 34.96 40.288 33.38V23.64H37.348V32.6C37.348 36 39.548 38.2 42.908 38.2ZM50.6055 38H55.6655C59.4255 38 62.3255 34.88 62.3255 30.82C62.3255 26.76 59.4255 23.64 55.6655 23.64H50.6055V38ZM53.5455 35.36V26.28H55.7455C58.0255 26.28 59.2255 27.54 59.2255 29.92V31.72C59.2255 34.12 58.0255 35.36 55.7455 35.36H53.5455ZM69.9955 30.22V32.68H73.5755C73.3755 34.72 72.2755 35.62 70.1555 35.62C67.6755 35.62 66.5555 34.44 66.5555 31.72V29.92C66.5555 27.28 67.6155 26.1 69.9755 26.1C72.0755 26.1 73.0755 26.94 73.1355 28.62H76.3155C75.9155 25.76 73.1555 23.44 70.1155 23.44C66.2555 23.44 63.4555 26.54 63.4555 30.82C63.4555 34.96 66.2155 38.2 69.7155 38.2C71.5155 38.2 73.1555 37.28 74.0955 35.8V38H76.4355V30.22H69.9955ZM87.7183 38H90.8383L86.8383 23.64H81.9383L77.8983 38H80.9183L81.7783 34.62H86.8583L87.7183 38ZM82.4383 32.1L83.9183 26.28H84.7183L86.1983 32.1H82.4383ZM108.504 38H105.784V28.06L101.704 38H99.4036L95.3236 28.14V38H92.6836V23.82H96.3236L100.584 34.06L104.744 23.82H108.504V38ZM116.683 38H126.663V35.4H119.503V34.6L122.903 32.46C125.203 31.12 126.523 29.62 126.523 27.82C126.523 25.38 124.543 23.44 121.483 23.44C118.443 23.44 116.363 25.66 116.183 28.12H119.063C119.063 26.38 119.803 25.9 121.463 25.9C123.103 25.9 123.523 26.42 123.523 27.46V28.22C123.523 28.98 122.983 29.56 121.843 30.32L116.683 33.42V38ZM134.206 38.2C137.506 38.2 139.886 35.12 139.886 30.82C139.886 26.52 137.466 23.44 134.206 23.44C130.946 23.44 128.546 26.52 128.546 30.82C128.546 35.12 130.906 38.2 134.206 38.2ZM134.206 35.72C132.346 35.72 131.546 34.8 131.546 32.84V28.8C131.546 26.82 132.346 25.9 134.206 25.9C136.086 25.9 136.866 26.82 136.866 28.8V32.84C136.866 34.8 136.086 35.72 134.206 35.72ZM142.53 38H152.51V35.4H145.35V34.6L148.75 32.46C151.05 31.12 152.37 29.62 152.37 27.82C152.37 25.38 150.39 23.44 147.33 23.44C144.29 23.44 142.21 25.66 142.03 28.12H144.91C144.91 26.38 145.65 25.9 147.31 25.9C148.95 25.9 149.37 26.42 149.37 27.46V28.22C149.37 28.98 148.83 29.56 147.69 30.32L142.53 33.42V38ZM154.733 38H165.253V35.4H161.413V23.64H155.193V26.24H158.573V35.4H154.733V38Z" fill="white"/>
<path d="M36.988 50H39.608C40.898 50 41.998 49.17 41.998 48.06C41.998 47.22 41.298 46.63 40.608 46.53V46.03C41.148 45.96 41.768 45.29 41.768 44.52C41.768 43.61 41.028 42.82 39.698 42.82H36.988V50ZM37.888 49.2V46.69H39.708V47.19H39.838C40.648 47.19 41.028 47.46 41.028 47.94V48.35C41.028 48.84 40.508 49.2 39.638 49.2H37.888ZM37.888 45.89V43.62H39.718C40.638 43.62 40.798 43.92 40.798 44.38V44.73C40.798 45.18 40.668 45.39 39.918 45.39H39.708V45.89H37.888ZM47.0038 50.1C48.5438 50.1 49.5438 49.1 49.5438 47.57V42.82H48.6438V47.81C48.6438 48.84 48.1438 49.29 47.0038 49.29C45.8537 49.29 45.3638 48.85 45.3638 47.81V42.82H44.4637V47.57C44.4637 49.1 45.4637 50.1 47.0038 50.1ZM52.2348 50H53.1348V42.82H52.2348V50ZM55.8739 50H59.7639V49.18H56.7739V42.82H55.8739V50ZM61.9837 50H64.2237C65.9537 50 67.3037 48.42 67.3037 46.41C67.3037 44.4 65.9537 42.82 64.2237 42.82H61.9837V50ZM62.8837 49.2V43.62H64.2137C65.4737 43.62 66.2837 44.48 66.2837 45.82V47.01C66.2837 48.34 65.4737 49.2 64.2137 49.2H62.8837ZM69.6755 50H70.5755V42.82H69.6755V50ZM73.3145 50H74.1345V43.62H74.5845L76.9645 50H78.7045V42.82H77.8745V49.2H77.5145L75.1345 42.82H73.3145V50ZM83.6958 50.1C84.8758 50.1 85.8658 49.36 85.9758 47.09H86.4758V50H87.2758V46.29H83.7058V47.09H85.1758C85.2558 48.57 84.8658 49.29 83.7458 49.29C82.7058 49.29 82.0958 48.84 82.0958 47.01V45.82C82.0958 44.29 82.7858 43.53 84.1758 43.53C85.3258 43.53 85.9958 44.09 86.0358 45.09H87.0858C86.8558 43.75 85.5958 42.72 84.1958 42.72C82.4358 42.72 81.0758 44.33 81.0758 46.41C81.0758 48.87 82.1358 50.1 83.6958 50.1ZM93.4798 50H94.3798V46.89H97.1098V46.09H94.3798V43.61H97.4098V42.82H93.4798V50ZM102.497 50.1C104.267 50.1 105.667 48.47 105.667 46.41C105.667 44.35 104.267 42.72 102.497 42.72C100.727 42.72 99.327 44.35 99.327 46.41C99.327 48.47 100.727 50.1 102.497 50.1ZM102.497 49.29C101.197 49.29 100.347 48.39 100.347 47.01V45.82C100.347 44.42 101.187 43.53 102.497 43.53C103.807 43.53 104.647 44.42 104.647 45.82V47.01C104.647 48.39 103.797 49.29 102.497 49.29ZM108.033 50H108.933V47.18H110.333V47.7L111.883 50H112.993L111.233 47.52V46.92C112.043 46.56 112.583 45.84 112.583 45C112.583 43.78 111.533 42.82 110.193 42.82H108.033V50ZM108.933 46.38V43.62H110.223C111.133 43.62 111.603 43.99 111.603 44.71V45.29C111.603 46.01 111.133 46.38 110.223 46.38H108.933ZM118.671 50H121.291C122.581 50 123.681 49.17 123.681 48.06C123.681 47.22 122.981 46.63 122.291 46.53V46.03C122.831 45.96 123.451 45.29 123.451 44.52C123.451 43.61 122.711 42.82 121.381 42.82H118.671V50ZM119.571 49.2V46.69H121.391V47.19H121.521C122.331 47.19 122.711 47.46 122.711 47.94V48.35C122.711 48.84 122.191 49.2 121.321 49.2H119.571ZM119.571 45.89V43.62H121.401C122.321 43.62 122.481 43.92 122.481 44.38V44.73C122.481 45.18 122.351 45.39 121.601 45.39H121.391V45.89H119.571ZM126.197 50H127.097V42.82H126.197V50ZM129.836 50H133.726V49.18H130.736V42.82H129.836V50ZM135.945 50H139.835V49.18H136.845V42.82H135.945V50ZM142.055 50H142.955V42.82H142.055V50ZM148.494 50.1C150.264 50.1 151.664 48.47 151.664 46.41C151.664 44.35 150.264 42.72 148.494 42.72C146.724 42.72 145.324 44.35 145.324 46.41C145.324 48.47 146.724 50.1 148.494 50.1ZM148.494 49.29C147.194 49.29 146.344 48.39 146.344 47.01V45.82C146.344 44.42 147.184 43.53 148.494 43.53C149.804 43.53 150.644 44.42 150.644 45.82V47.01C150.644 48.39 149.794 49.29 148.494 49.29ZM154.031 50H154.851V43.62H155.301L157.681 50H159.421V42.82H158.591V49.2H158.231L155.851 42.82H154.031V50ZM164.552 50.1C165.942 50.1 167.062 49.12 167.062 47.89C167.062 46.82 166.392 46.21 164.992 46L164.512 45.93C163.382 45.76 163.072 45.54 163.072 44.92V44.58C163.072 43.87 163.512 43.53 164.432 43.53C165.502 43.53 165.872 43.87 165.912 44.9H166.962C166.782 43.57 165.802 42.72 164.432 42.72C163.182 42.72 162.132 43.66 162.132 44.79C162.132 45.81 162.922 46.59 164.172 46.77L164.652 46.84C165.872 47.02 166.122 47.18 166.122 47.76V48.16C166.122 48.93 165.612 49.29 164.552 49.29C163.382 49.29 162.982 48.93 162.932 47.82H161.882C162.052 49.19 163.112 50.1 164.552 50.1Z" fill="white"/>
</svg>
