<svg width="718" height="835" viewBox="0 0 718 835" fill="none" xmlns="http://www.w3.org/2000/svg">
<g filter="url(#filter0_d)">
<rect width="456.652" height="623.743" transform="matrix(0.985504 0.16965 -0.194705 0.980862 194.82 68)" fill="url(#paint0_linear)"/>
<path d="M394.636 201.24L415.793 164.915L424.45 212.498L394.636 201.24Z" stroke="white" stroke-width="2.06117"/>
<path d="M376.854 262.597L422.954 223.531L386.649 287.24L376.854 262.597Z" stroke="white" stroke-width="2.06117"/>
<path d="M386.865 212.4L389.133 209C389.537 219.664 389.919 229.733 390.323 240.435L365.163 223.347C371.456 215.777 377.601 208.383 384.237 200.393C384.512 204.69 384.74 208.274 384.973 211.937L385.164 214.951L386.865 212.4Z" stroke="white" stroke-width="2.06117"/>
<path d="M394.008 206.674L422.949 217.473L395.236 241.133C395.128 238.1 395.021 235.114 394.916 232.15C394.614 223.664 394.318 215.36 394.008 206.674Z" stroke="white" stroke-width="2.06117"/>
<path d="M388.91 246.103L375.274 257.849C374.104 254.695 372.954 251.592 371.816 248.523C369.481 242.226 367.201 236.075 364.918 229.937L388.91 246.103Z" stroke="white" stroke-width="2.06117"/>
<path d="M285.26 368.403L273.893 366.446L260.82 390.056L255.534 389.146L252.461 362.757L240.66 360.725L246.044 397.35L250.822 398.172L247.404 415.395L258.047 417.227L261.466 400.004L266.099 400.802L285.26 368.403ZM300.304 425.247C314.133 427.627 326.992 417.917 329.982 402.856C332.971 387.795 324.689 374.446 310.86 372.065C297.031 369.684 284.099 379.382 281.11 394.443C278.12 409.504 286.475 422.866 300.304 425.247ZM302.206 415.662C293.518 414.167 289.915 408.553 291.689 399.618L292.976 393.132C294.764 384.124 300.27 380.154 308.958 381.649C317.646 383.145 321.264 388.686 319.475 397.694L318.188 404.18C316.414 413.115 310.822 417.146 302.206 415.662ZM351.508 434.061C363.599 436.143 373.079 429.502 375.496 417.324L381.905 385.04L371.262 383.208L364.295 418.302C363.151 424.067 360.115 425.78 353.382 424.621C346.648 423.462 344.34 420.755 345.47 415.062L352.437 379.967L341.794 378.135L335.385 410.419C332.953 422.67 339.344 431.967 351.508 434.061ZM400.796 389.41C399.663 391.848 398.217 394.481 396.457 397.308C394.698 400.135 392.953 402.766 391.222 405.201L383.474 403.867C384.713 401.149 385.989 398.239 387.304 395.136C388.619 392.034 389.693 389.263 390.527 386.823L400.446 388.53L400.796 389.41ZM436.194 447.894L427.513 425.235C434.501 423.606 439.845 418.937 441.133 412.451C443.007 403.011 436.183 394.384 425.323 392.514L406.498 389.274L396.227 441.014L406.871 442.847L410.533 424.399L416.904 425.495L423.813 445.763L436.194 447.894ZM415.296 400.402L423.84 401.873C429.053 402.77 431.273 405.165 430.472 409.2L429.914 412.01C429.113 416.046 426.193 417.555 420.907 416.645L412.364 415.175L415.296 400.402ZM442.611 448.999L475.771 454.707L477.659 445.195L455.07 441.307L457.544 428.84L477.455 432.267L479.329 422.827L459.418 419.4L461.564 408.59L483.647 412.392L485.535 402.88L452.881 397.259L442.611 448.999ZM208.574 474.645L219.217 476.477L229.488 424.737L218.845 422.905L208.574 474.645ZM228.513 478.078L238.288 479.76L246.67 437.532L250.145 438.13L252.623 482.228L273.186 485.768L283.456 434.027L273.682 432.345L265.3 474.573L262.476 474.087L260.215 430.027L238.784 426.337L228.513 478.078ZM293.54 489.272L312.075 492.462L335.233 442.941L324.083 441.021L306.361 481.642L303.464 481.143L302.507 437.307L290.995 435.325L293.54 489.272ZM332.522 495.982L343.165 497.815L353.436 446.074L342.792 444.242L332.522 495.982ZM363.321 501.284L373.965 503.117L382.318 461.032L396.437 463.463L398.354 453.807L359.473 447.113L357.557 456.77L371.675 459.2L363.321 501.284ZM394.107 506.584L427.267 512.292L429.156 502.78L406.566 498.891L409.04 486.425L428.951 489.852L430.825 480.412L410.914 476.985L413.06 466.175L435.143 469.977L437.031 460.465L404.377 454.843L394.107 506.584ZM434.975 513.619L453.293 516.773C466.905 519.116 479.635 509.681 482.538 495.053C485.442 480.424 477.175 467.375 463.563 465.032L445.246 461.879L434.975 513.619ZM447.506 505.939L454.001 473.223L461.965 474.594C470.219 476.015 473.662 481.303 471.96 489.878L470.672 496.364C468.956 505.011 463.725 508.731 455.471 507.31L447.506 505.939Z" fill="white"/>
<path d="M269.726 519.596L278.693 521.14L279.057 519.307L275.564 518.705L277.665 508.121L272.591 507.247L272.227 509.081L275.337 509.616L273.6 518.367L270.09 517.763L269.726 519.596ZM286.872 513.945C285.846 513.768 284.808 514.019 283.952 514.623L284.628 511.215L290.884 512.292L291.248 510.459L283.289 509.089L281.83 516.439L283.585 516.742C283.992 515.685 284.752 515.297 286.247 515.554C287.863 515.832 288.472 516.563 288.205 517.912L287.961 519.14C287.69 520.507 286.85 520.934 285.251 520.659C283.722 520.396 283.169 519.925 283.239 518.757L281.119 518.392C281.113 520.412 282.649 522 284.856 522.38C287.74 522.876 289.713 521.266 290.19 518.862C290.647 516.562 289.391 514.378 286.872 513.945ZM291.703 519.677L292.122 517.567L296.674 518.351L296.256 520.461L291.703 519.677ZM297.93 524.451L306.34 525.899L306.704 524.066L300.258 522.956L300.395 522.264L304.299 520.432C306.384 519.522 307.65 518.398 307.942 516.928C308.34 514.922 307.05 513.001 304.496 512.561C302.028 512.136 299.992 513.52 299.299 515.655L301.349 516.008C301.662 514.434 302.505 513.989 304.138 514.27C305.754 514.548 306.12 515.148 305.89 516.307L305.763 516.946C305.609 517.725 304.915 518.231 303.52 518.921L298.582 521.165L297.93 524.451ZM314.667 527.333L316.63 527.671L317.42 523.693L319.644 524.076L319.967 522.45L317.742 522.067L318.532 518.089L316.569 517.751L315.779 521.729L312.06 521.089L313.413 514.275L311.467 513.94L309.791 522.38L315.456 523.355L314.667 527.333ZM328.474 529.888C330.767 530.283 332.866 528.856 333.322 526.556L335.022 517.995L333.006 517.648L331.341 526.036C330.984 527.834 330.342 528.35 328.813 528.087C327.163 527.802 326.8 527.186 327.171 525.318L325.085 524.959C324.622 527.383 326.041 529.47 328.474 529.888ZM342.576 532.137L344.731 532.508L343.616 519.474L340.158 518.879L334.079 530.674L336.147 531.03L337.744 527.782L342.331 528.571L342.576 532.137ZM338.56 526.116L341.122 520.905L341.817 521.024L342.209 526.744L338.56 526.116ZM346.585 532.827L348.427 533.144L350.535 522.525L351.352 522.666L352.667 533.874L356.577 534.547L359.042 522.13L357.182 521.809L355.074 532.429L354.414 532.315L353.134 521.112L349.05 520.41L346.585 532.827ZM363.626 535.94C366.406 536.418 368.574 534.913 369.127 532.129L370.713 524.139L368.697 523.792L367.001 532.335C366.685 533.926 365.79 534.452 363.983 534.141C362.159 533.827 361.524 533.038 361.84 531.447L363.536 522.903L361.521 522.556L359.934 530.546C359.382 533.331 360.828 535.458 363.626 535.94ZM378.263 538.28L380.418 538.651L379.303 525.617L375.845 525.022L369.766 536.818L371.833 537.174L373.431 533.925L378.018 534.715L378.263 538.28ZM374.247 532.259L376.808 527.048L377.504 527.168L377.896 532.887L374.247 532.259ZM391.325 540.529L388.967 534.936C390.734 534.632 392.111 533.492 392.43 531.884C392.863 529.705 391.288 527.681 388.838 527.259L384.737 526.553L382.272 538.971L384.287 539.318L385.214 534.648L386.917 534.941L388.927 540.116L391.325 540.529ZM386.399 528.681L388.554 529.052C389.978 529.297 390.598 529.976 390.375 531.101L390.207 531.948C389.987 533.055 389.162 533.503 387.719 533.255L385.565 532.884L386.399 528.681ZM404.225 529.908L402.053 529.534L398.673 535.158L397.248 534.913L396.284 528.541L394.043 528.155L395.483 536.469L396.561 536.655L395.644 541.272L397.677 541.622L398.594 537.005L399.671 537.19L404.225 529.908Z" fill="white"/>
<path d="M262.931 623.556C262.066 623.407 261.229 623.477 260.421 623.768C259.631 624.045 258.945 624.523 258.363 625.202C257.799 625.868 257.418 626.701 257.22 627.7C257.022 628.699 257.064 629.613 257.347 630.44C257.645 631.271 258.118 631.948 258.764 632.473C259.426 633 260.19 633.339 261.055 633.487C262.43 633.724 263.606 633.513 264.583 632.855C265.579 632.183 266.342 631.194 266.873 629.886L270.009 631.833C269.137 633.734 267.868 635.137 266.202 636.043C264.537 636.949 262.592 637.21 260.368 636.827C258.654 636.532 257.227 635.913 256.088 634.97C254.95 634.026 254.157 632.872 253.709 631.507C253.264 630.127 253.199 628.645 253.513 627.062C253.821 625.509 254.471 624.166 255.463 623.033C256.457 621.885 257.675 621.061 259.116 620.562C260.557 620.063 262.073 619.95 263.664 620.224C265.085 620.469 266.281 620.921 267.252 621.581C268.239 622.244 268.983 623.04 269.486 623.969C269.991 624.882 270.259 625.867 270.289 626.921L266.581 627.857C266.573 626.695 266.243 625.74 265.593 624.992C264.946 624.229 264.058 623.75 262.931 623.556ZM272.88 630.396C273.179 628.889 273.833 627.563 274.844 626.417C275.869 625.274 277.112 624.447 278.571 623.935C280.03 623.423 281.54 623.301 283.1 623.57C284.66 623.838 286.024 624.455 287.19 625.419C288.356 626.383 289.191 627.568 289.695 628.974C290.214 630.383 290.324 631.841 290.025 633.347C289.726 634.854 289.063 636.179 288.038 637.322C287.028 638.467 285.793 639.296 284.334 639.808C282.874 640.32 281.365 640.442 279.804 640.173C278.244 639.904 276.881 639.288 275.715 638.324C274.548 637.36 273.706 636.174 273.187 634.765C272.683 633.359 272.581 631.902 272.88 630.396ZM276.587 631.034C276.395 632.002 276.441 632.893 276.728 633.705C277.014 634.518 277.488 635.187 278.15 635.715C278.815 636.227 279.595 636.56 280.491 636.714C281.387 636.868 282.244 636.817 283.061 636.56C283.882 636.288 284.582 635.82 285.161 635.157C285.74 634.494 286.126 633.678 286.318 632.709C286.51 631.741 286.463 630.85 286.177 630.038C285.891 629.225 285.416 628.563 284.751 628.051C284.088 627.524 283.309 627.183 282.414 627.029C281.518 626.875 280.659 626.934 279.839 627.206C279.021 627.462 278.323 627.922 277.744 628.586C277.165 629.249 276.779 630.065 276.587 631.034ZM295.429 642.624L291.722 641.986L294.926 625.844L301.275 626.937L304.491 641.633L307.206 627.958L310.913 628.596L307.709 644.738L301.36 643.645L298.144 628.95L295.429 642.624ZM327.186 631.398L326.522 634.741L317.857 633.25L317.216 636.478L325.186 637.85L324.523 641.194L316.552 639.822L315.316 646.048L311.609 645.41L314.814 629.268L327.186 631.398ZM330.606 631.986L334.313 632.624L331.108 648.766L327.401 648.128L330.606 631.986ZM344.595 651.088C344.464 650.62 344.417 650.135 344.452 649.632C344.488 649.13 344.61 648.356 344.817 647.311C344.976 646.511 344.887 645.876 344.549 645.404C344.23 644.92 343.692 644.613 342.935 644.482L339.923 643.964L338.71 650.075L335.003 649.437L338.207 633.295L346.316 634.691C347.444 634.885 348.376 635.26 349.112 635.816C349.851 636.357 350.365 637.025 350.654 637.822C350.947 638.604 351.003 639.448 350.823 640.355C350.642 641.262 350.18 642.065 349.434 642.763C348.704 643.464 347.842 643.904 346.848 644.083C347.491 644.384 347.986 644.867 348.334 645.531C348.681 646.195 348.791 646.969 348.663 647.853C348.554 648.645 348.498 649.327 348.497 649.899C348.51 650.474 348.624 650.987 348.838 651.437L348.765 651.806L344.595 651.088ZM344.873 641.358C345.537 641.472 346.063 641.396 346.452 641.129C346.843 640.847 347.088 640.46 347.186 639.968C347.283 639.476 347.199 639.056 346.932 638.708C346.666 638.36 346.201 638.129 345.537 638.014L341.25 637.277L340.587 640.62L344.873 641.358ZM368.744 655.245L371.563 641.04L365.037 654.607L359.476 653.65L358.589 638.807L355.769 653.011L352.062 652.373L355.266 636.231L361.985 637.388L362.778 651.499L368.936 638.585L375.655 639.741L372.451 655.883L368.744 655.245Z" fill="white"/>
<rect x="0.464787" y="0.676206" width="344.565" height="51.7215" transform="matrix(0.985504 0.16965 -0.194705 0.980862 148.814 583.117)" stroke="white" stroke-width="1.17549"/>
</g>
<defs>
<filter id="filter0_d" x="0.841263" y="7.9155e-05" width="716.545" height="834.343" filterUnits="userSpaceOnUse" color-interpolation-filters="sRGB">
<feFlood flood-opacity="0" result="BackgroundImageFix"/>
<feColorMatrix in="SourceAlpha" type="matrix" values="0 0 0 0 0 0 0 0 0 0 0 0 0 0 0 0 0 0 127 0"/>
<feOffset dy="4.53333"/>
<feGaussianBlur stdDeviation="36.2666"/>
<feColorMatrix type="matrix" values="0 0 0 0 0.171576 0 0 0 0 0.34509 0 0 0 0 0.229987 0 0 0 0.4 0"/>
<feBlend mode="normal" in2="BackgroundImageFix" result="effect1_dropShadow"/>
<feBlend mode="normal" in="SourceGraphic" in2="effect1_dropShadow" result="shape"/>
</filter>
<linearGradient id="paint0_linear" x1="139.209" y1="30.8549" x2="401.657" y2="510.663" gradientUnits="userSpaceOnUse">
<stop stop-color="#6A11CB"/>
<stop offset="1" stop-color="#2575FC"/>
</linearGradient>
</defs>
</svg>
